<svg width="32" height="32" viewBox="0 0 32 32" fill="none" xmlns="http://www.w3.org/2000/svg">
<path d="M16 23.2727C13.9879 23.2727 12.2727 22.5636 10.8545 21.1455C9.43636 19.7273 8.72727 18.0121 8.72727 16C8.72727 13.9879 9.43636 12.2727 10.8545 10.8545C12.2727 9.43636 13.9879 8.72727 16 8.72727C18.0121 8.72727 19.7273 9.43636 21.1455 10.8545C22.5636 12.2727 23.2727 13.9879 23.2727 16C23.2727 18.0121 22.5636 19.7273 21.1455 21.1455C19.7273 22.5636 18.0121 23.2727 16 23.2727ZM1.09091 17.0909C0.781818 17.0909 0.522727 16.9858 0.313636 16.7755C0.104545 16.5651 0 16.3045 0 15.9936C0 15.6827 0.104545 15.4242 0.313636 15.2182C0.522727 15.0121 0.781818 14.9091 1.09091 14.9091H4.72727C5.03636 14.9091 5.29545 15.0142 5.50455 15.2245C5.71364 15.4349 5.81818 15.6955 5.81818 16.0064C5.81818 16.3173 5.71364 16.5758 5.50455 16.7818C5.29545 16.9879 5.03636 17.0909 4.72727 17.0909H1.09091ZM27.2727 17.0909C26.9636 17.0909 26.7045 16.9858 26.4955 16.7755C26.2864 16.5651 26.1818 16.3045 26.1818 15.9936C26.1818 15.6827 26.2864 15.4242 26.4955 15.2182C26.7045 15.0121 26.9636 14.9091 27.2727 14.9091H30.9091C31.2182 14.9091 31.4773 15.0142 31.6864 15.2245C31.8955 15.4349 32 15.6955 32 16.0064C32 16.3173 31.8955 16.5758 31.6864 16.7818C31.4773 16.9879 31.2182 17.0909 30.9091 17.0909H27.2727ZM15.9936 5.81818C15.6827 5.81818 15.4242 5.71364 15.2182 5.50455C15.0121 5.29545 14.9091 5.03636 14.9091 4.72727V1.09091C14.9091 0.781818 15.0142 0.522727 15.2245 0.313636C15.4349 0.104545 15.6955 0 16.0064 0C16.3173 0 16.5758 0.104545 16.7818 0.313636C16.9879 0.522727 17.0909 0.781818 17.0909 1.09091V4.72727C17.0909 5.03636 16.9858 5.29545 16.7755 5.50455C16.5651 5.71364 16.3045 5.81818 15.9936 5.81818ZM15.9936 32C15.6827 32 15.4242 31.8955 15.2182 31.6865C15.0121 31.4773 14.9091 31.2182 14.9091 30.9091V27.2727C14.9091 26.9636 15.0142 26.7045 15.2245 26.4955C15.4349 26.2864 15.6955 26.1818 16.0064 26.1818C16.3173 26.1818 16.5758 26.2864 16.7818 26.4955C16.9879 26.7045 17.0909 26.9636 17.0909 27.2727V30.9091C17.0909 31.2182 16.9858 31.4773 16.7755 31.6865C16.5651 31.8955 16.3045 32 15.9936 32ZM7.27273 8.8L5.2 6.76364C4.98182 6.54545 4.87722 6.2836 4.88622 5.97807C4.89519 5.67252 4.99853 5.41192 5.19625 5.19625C5.41192 4.98057 5.67252 4.87273 5.97807 4.87273C6.2836 4.87273 6.54545 4.98182 6.76364 5.2L8.8 7.27273C8.99394 7.49091 9.09091 7.74545 9.09091 8.03636C9.09091 8.32727 8.99394 8.57576 8.8 8.78182C8.60606 8.98788 8.35758 9.09091 8.05455 9.09091C7.75151 9.09091 7.49091 8.99394 7.27273 8.8ZM25.2364 26.8L23.2 24.7273C23.0061 24.5091 22.9091 24.25 22.9091 23.95C22.9091 23.65 23.0121 23.4 23.2182 23.2C23.4242 22.9818 23.6727 22.8727 23.9636 22.8727C24.2545 22.8727 24.5091 22.9818 24.7273 23.2L26.8 25.2364C27.0182 25.4545 27.1228 25.7164 27.1138 26.0219C27.1048 26.3275 27.0015 26.5881 26.8037 26.8037C26.5881 27.0194 26.3275 27.1273 26.0219 27.1273C25.7164 27.1273 25.4545 27.0182 25.2364 26.8ZM23.2 8.8C22.9818 8.58182 22.8727 8.32727 22.8727 8.03636C22.8727 7.74545 22.9818 7.49091 23.2 7.27273L25.2364 5.2C25.4545 4.98182 25.7164 4.87722 26.0219 4.88622C26.3275 4.89519 26.5881 4.99853 26.8037 5.19625C27.0194 5.41192 27.1273 5.67252 27.1273 5.97807C27.1273 6.2836 27.0182 6.54545 26.8 6.76364L24.7273 8.8C24.5333 8.99394 24.2865 9.09091 23.9868 9.09091C23.6871 9.09091 23.4248 8.99394 23.2 8.8ZM5.19625 26.8037C4.98057 26.5881 4.87273 26.3275 4.87273 26.0219C4.87273 25.7164 4.98182 25.4545 5.2 25.2364L7.27273 23.2C7.48606 22.9818 7.73939 22.8727 8.03273 22.8727C8.32606 22.8727 8.57708 22.9818 8.78578 23.2C9.01344 23.4182 9.12727 23.6727 9.12727 23.9636C9.12727 24.2545 9.01818 24.5091 8.8 24.7273L6.76364 26.8C6.54545 27.0182 6.2836 27.1228 5.97807 27.1138C5.67252 27.1048 5.41192 27.0015 5.19625 26.8037Z" fill="#CAF0F8"/>
</svg>
