<svg width="40" height="40" viewBox="0 0 40 40" fill="none" xmlns="http://www.w3.org/2000/svg">
<path d="M13.379 31.8984C13.379 32.0597 13.1935 32.1888 12.9597 32.1888C12.6935 32.213 12.5081 32.0839 12.5081 31.8984C12.5081 31.7372 12.6935 31.6081 12.9274 31.6081C13.1694 31.5839 13.379 31.713 13.379 31.8984ZM10.871 31.5355C10.8145 31.6968 10.9758 31.8823 11.2177 31.9307C11.4274 32.0114 11.6694 31.9307 11.7177 31.7694C11.7661 31.6081 11.6129 31.4226 11.371 31.3501C11.1613 31.2936 10.9274 31.3743 10.871 31.5355ZM14.4355 31.3984C14.2016 31.4549 14.0403 31.6081 14.0645 31.7936C14.0887 31.9549 14.2984 32.0597 14.5403 32.0033C14.7742 31.9468 14.9355 31.7936 14.9113 31.6323C14.8871 31.4791 14.6694 31.3743 14.4355 31.3984ZM19.7419 0.495224C8.55645 0.495224 0 8.98716 0 20.1726C0 29.1162 5.62903 36.7694 13.6694 39.463C14.7016 39.6484 15.0645 39.0114 15.0645 38.4872C15.0645 37.9872 15.0403 35.2291 15.0403 33.5355C15.0403 33.5355 9.39516 34.7452 8.20968 31.1323C8.20968 31.1323 7.29032 28.7855 5.96774 28.1807C5.96774 28.1807 4.12097 26.9146 6.09677 26.9388C6.09677 26.9388 8.10484 27.1001 9.20968 29.0194C10.9758 32.1323 13.9355 31.2372 15.0887 30.7049C15.2742 29.4146 15.7984 28.5194 16.379 27.9872C11.871 27.4872 7.32258 26.8339 7.32258 19.0759C7.32258 16.8581 7.93548 15.7452 9.22581 14.3259C9.01613 13.8017 8.33064 11.6404 9.43548 8.85006C11.121 8.32587 15 11.0275 15 11.0275C16.6129 10.5759 18.3468 10.342 20.0645 10.342C21.7823 10.342 23.5161 10.5759 25.129 11.0275C25.129 11.0275 29.0081 8.3178 30.6935 8.85006C31.7984 11.6484 31.1129 13.8017 30.9032 14.3259C32.1936 15.7533 32.9839 16.8662 32.9839 19.0759C32.9839 26.8581 28.2339 27.4791 23.7258 27.9872C24.4677 28.6243 25.0968 29.8339 25.0968 31.7291C25.0968 34.4468 25.0726 37.8097 25.0726 38.471C25.0726 38.9952 25.4435 39.6323 26.4677 39.4468C34.5323 36.7694 40 29.1162 40 20.1726C40 8.98716 30.9274 0.495224 19.7419 0.495224ZM7.83871 28.3097C7.73387 28.3904 7.75806 28.5759 7.89516 28.7291C8.02419 28.8581 8.20968 28.9146 8.31452 28.8097C8.41935 28.7291 8.39516 28.5436 8.25806 28.3904C8.12903 28.2614 7.94355 28.2049 7.83871 28.3097ZM6.96774 27.6565C6.91129 27.7614 6.99194 27.8904 7.15323 27.971C7.28226 28.0517 7.44355 28.0275 7.5 27.9146C7.55645 27.8097 7.47581 27.6807 7.31452 27.6001C7.15323 27.5517 7.02419 27.5759 6.96774 27.6565ZM9.58065 30.5275C9.45161 30.6323 9.5 30.8743 9.68548 31.0275C9.87097 31.213 10.1048 31.2372 10.2097 31.1081C10.3145 31.0033 10.2661 30.7614 10.1048 30.6081C9.92742 30.4226 9.68548 30.3984 9.58065 30.5275ZM8.66129 29.342C8.53226 29.4226 8.53226 29.6323 8.66129 29.8178C8.79032 30.0033 9.00806 30.0839 9.1129 30.0033C9.24193 29.8984 9.24193 29.6888 9.1129 29.5033C9 29.3178 8.79032 29.2372 8.66129 29.342Z" fill="#023E8A"/>
</svg>
