<svg width="40" height="41" viewBox="0 0 40 41" fill="none" xmlns="http://www.w3.org/2000/svg">
<path d="M20.0045 10.2465C14.3291 10.2465 9.75125 14.8243 9.75125 20.4997C9.75125 26.1751 14.3291 30.7529 20.0045 30.7529C25.6799 30.7529 30.2577 26.1751 30.2577 20.4997C30.2577 14.8243 25.6799 10.2465 20.0045 10.2465ZM20.0045 27.1656C16.3369 27.1656 13.3385 24.1762 13.3385 20.4997C13.3385 16.8232 16.3279 13.8338 20.0045 13.8338C23.681 13.8338 26.6704 16.8232 26.6704 20.4997C26.6704 24.1762 23.6721 27.1656 20.0045 27.1656ZM33.0686 9.82707C33.0686 11.1567 31.9978 12.2186 30.6771 12.2186C29.3475 12.2186 28.2856 11.1478 28.2856 9.82707C28.2856 8.50638 29.3564 7.43555 30.6771 7.43555C31.9978 7.43555 33.0686 8.50638 33.0686 9.82707ZM39.8595 12.2543C39.7078 9.05072 38.976 6.21302 36.6291 3.87504C34.2911 1.53706 31.4534 0.805322 28.2499 0.644697C24.9481 0.457302 15.0519 0.457302 11.7501 0.644697C8.55549 0.796398 5.71779 1.52813 3.37089 3.86611C1.02398 6.20409 0.301171 9.0418 0.140547 12.2454C-0.0468489 15.5471 -0.0468489 25.4434 0.140547 28.7451C0.292248 31.9487 1.02398 34.7864 3.37089 37.1243C5.71779 39.4623 8.54657 40.1941 11.7501 40.3547C15.0519 40.5421 24.9481 40.5421 28.2499 40.3547C31.4534 40.203 34.2911 39.4712 36.6291 37.1243C38.9671 34.7864 39.6988 31.9487 39.8595 28.7451C40.0468 25.4434 40.0468 15.556 39.8595 12.2543ZM35.594 32.2878C34.8979 34.0368 33.5505 35.3842 31.7925 36.0892C29.1601 37.1333 22.9136 36.8923 20.0045 36.8923C17.0954 36.8923 10.8399 37.1243 8.2164 36.0892C6.46737 35.3932 5.11991 34.0457 4.41495 32.2878C3.37089 29.6553 3.61182 23.4088 3.61182 20.4997C3.61182 17.5906 3.37981 11.3352 4.41495 8.71162C5.11099 6.9626 6.45845 5.61514 8.2164 4.91017C10.8489 3.86611 17.0954 4.10705 20.0045 4.10705C22.9136 4.10705 29.169 3.87504 31.7925 4.91017C33.5416 5.60621 34.889 6.95368 35.594 8.71162C36.638 11.3441 36.3971 17.5906 36.3971 20.4997C36.3971 23.4088 36.638 29.6642 35.594 32.2878Z" fill="#023E8A"/>
</svg>
