<svg width="32" height="32" viewBox="0 0 32 32" fill="none" xmlns="http://www.w3.org/2000/svg">
<path d="M16.1746 31.9979C11.6817 31.9979 7.86268 30.4254 4.71761 27.2803C1.57254 24.1352 0 20.3162 0 15.8233C0 11.7796 1.19063 8.34999 3.5719 5.5344C5.95317 2.71882 9.07577 0.906657 12.9397 0.097925C14.1678 -0.141699 15.0065 0.0679719 15.4558 0.726939C15.9051 1.38591 15.8901 2.2845 15.4108 3.42271C15.1413 4.11163 14.9316 4.81553 14.7818 5.5344C14.6321 6.25328 14.5572 6.98713 14.5572 7.73595C14.5572 10.4317 15.5007 12.7231 17.3877 14.6102C19.2748 16.4972 21.5662 17.4407 24.262 17.4407C25.0108 17.4407 25.7372 17.3733 26.4411 17.2386C27.1449 17.1038 27.8264 16.9166 28.4853 16.6769C29.7733 16.1977 30.7318 16.2202 31.3608 16.7443C31.9899 17.2685 32.1546 18.1596 31.8551 19.4176C31.0463 23.042 29.2342 26.0448 26.4186 28.426C23.603 30.8073 20.1884 31.9979 16.1746 31.9979Z" fill="#023E8A"/>
</svg>
