<svg width="40" height="41" viewBox="0 0 40 41" fill="none" xmlns="http://www.w3.org/2000/svg">
<path d="M37.1429 0.495819H2.84821C1.27679 0.495819 0 1.79046 0 3.37975V37.6119C0 39.2012 1.27679 40.4958 2.84821 40.4958H37.1429C38.7143 40.4958 40 39.2012 40 37.6119V3.37975C40 1.79046 38.7143 0.495819 37.1429 0.495819ZM12.0893 34.7815H6.16071V15.6922H12.0982V34.7815H12.0893ZM9.125 13.0851C7.22321 13.0851 5.6875 11.5405 5.6875 9.6476C5.6875 7.75475 7.22321 6.2101 9.125 6.2101C11.0179 6.2101 12.5625 7.75475 12.5625 9.6476C12.5625 11.5494 11.0268 13.0851 9.125 13.0851ZM34.3125 34.7815H28.3839V25.4958C28.3839 23.2815 28.3393 20.4333 25.3036 20.4333C22.2143 20.4333 21.7411 22.844 21.7411 25.3351V34.7815H15.8125V15.6922H21.5V18.2994H21.5804C22.375 16.7994 24.3125 15.219 27.1964 15.219C33.1964 15.219 34.3125 19.1744 34.3125 24.3172V34.7815Z" fill="#023E8A"/>
</svg>
