<svg width="29" height="32" viewBox="0 0 29 32" fill="none" xmlns="http://www.w3.org/2000/svg">
<path d="M4.13524 17.08C5.41524 16.36 6.80857 15.8 8.31524 15.4C9.82191 15 11.3219 14.8 12.8152 14.8C13.6152 14.8 14.4086 14.8533 15.1952 14.96C15.9819 15.0667 16.7352 15.2267 17.4552 15.44C18.8152 15.8133 19.8552 16.0667 20.5752 16.2C21.2952 16.3333 22.0686 16.4 22.8952 16.4H24.4152L25.9752 2.4H2.53524L4.13524 17.08ZM5.53524 32C4.92191 32 4.38191 31.8 3.91524 31.4C3.44857 31 3.18857 30.4933 3.13524 29.88L0.0152381 1.32C-0.0380952 0.946667 0.0485714 0.633333 0.275238 0.38C0.501905 0.126667 0.801905 0 1.17524 0H27.3352C27.7086 0 28.0086 0.126667 28.2352 0.38C28.4619 0.633333 28.5486 0.946667 28.4952 1.32L25.3752 29.88C25.3219 30.4933 25.0619 31 24.5952 31.4C24.1286 31.8 23.5886 32 22.9752 32H5.53524Z" fill="#023E8A"/>
</svg>
